<svg xmlns="http://www.w3.org/2000/svg" fill="none" viewBox="0 0 121 16"><path fill="currentColor" fill-rule="evenodd" d="m64.937 3.966-8.655.005c-1.27 0-2.38.51-2.716 2.101l-.727 3.455c-.095.429-.143.957.115 1.306.314.425 1.133.38 1.586.417h.009l4.755-.012c.593 0 1.712.067 2.101.63v.002l.002.002c.099.157.12.344.086.537V12.418c-.26 1.164-1.915 1.338-2.734 1.338h-8.185l1.64-7.672c.098-.478.094-.964-.169-1.354-.377-.562-1.166-.76-1.76-.76h-6.893c-.492.001-.978.109-1.423.317-.696.333-1.199.924-1.383 1.789l-1.857 8.768c-.063.303-.14.694.037.952a.451.451 0 0 0 .39.198h1.053c.201 0 .392-.114.538-.281.177-.202.284-.472.34-.75l1.407-6.626c.32-1.501 1.601-2.072 2.781-2.072h2.023c.629 0 1.503.179 1.904.78.165.249.234.537.223.857a2.632 2.632 0 0 1-.054.427l-1.404 6.523c-.065.303-.135.697.046.953a.448.448 0 0 0 .383.192h12.38c1.3 0 2.46-.51 2.798-2.15l.557-2.695c.112-.498.12-1.05-.154-1.46-.391-.587-1.154-.743-1.77-.743h-4.45c-.42 0-.84.016-1.256-.039-.252-.03-.564-.102-.748-.312a.683.683 0 0 1-.053-.068c-.167-.25-.14-.599-.076-.896.094-.445.265-.86.621-1.1.472-.316 1.21-.277 1.732-.277l6.465.003c.238.005.446-.164.594-.379.159-.23.26-.52.318-.804.075-.362.044-.965-.31-1.093a.328.328 0 0 0-.104-.02l-.003.002Zm53.874 9.968v-.004c.099-.284.174-.576.223-.872a4.39 4.39 0 0 0 .066-.536v-.008c.016-.19.007-.416-.104-.562-.111-.146-.299-.179-.46-.179h-.749a1.236 1.236 0 0 0-.237.014c-.306.059-.467.323-.539.659-.061.29-.155.707-.352.913-.23.241-.692.273-.982.289h-2.598c-.558 0-1.26-.181-1.612-.71-.283-.427-.277-.989-.171-1.507l.629-2.93c.339-1.583 1.448-2.175 2.726-2.24h4.903c.238.005.444-.165.592-.378.16-.23.266-.52.327-.802v-.008c.069-.364.024-.99-.342-1.095a.322.322 0 0 0-.09-.013h-4.921c-.559 0-1.269-.152-1.623-.686-.268-.405-.276-.902-.174-1.396l.159-.726v-.005c.065-.306.135-.707-.05-.964a.45.45 0 0 0-.379-.188H112c-.199 0-.388.119-.531.283-.175.202-.285.472-.346.745l-.614 2.938-10.548.005c-1.272 0-2.381.51-2.707 2.108l-.736 3.447c-.094.428-.132.942.106 1.301l.005.007.004.005c.335.451 1.115.423 1.595.412h4.842c.585 0 1.724.064 2.105.621v.004a.742.742 0 0 1 .088.534V12.42c-.261 1.165-1.919 1.317-2.735 1.317l-15.275-.006c-.58 0-1.38-.053-1.76-.62-.256-.386-.227-.914-.13-1.376l.716-3.404c.338-1.608 1.477-2.115 2.753-2.115h2.285c.562 0 1.438.064 1.801.616.189.285.201.631.126.98-.15.692-.44 1.119-1.082 1.129-.298.005-.597.003-.895.003h-1.548c-.83 0-1.662.005-2.492-.003-.239-.002-.446.166-.595.38-.16.227-.265.515-.326.796-.078.366-.04.993.33 1.101.03.009.06.013.09.013h5.876c1.301 0 2.433-.551 2.764-2.177l.631-2.97c.108-.507.123-1.083-.151-1.505-.366-.562-1.1-.612-1.67-.612H87.06c-1.267 0-2.525.435-2.86 2.082l-1.666 7.862c-.103.485-.12 1.04.145 1.443.374.57 1.141.642 1.72.642l20.058.005c1.3 0 2.461-.51 2.8-2.15l.556-2.694v-.002c.113-.496.119-1.051-.153-1.46-.393-.59-1.163-.745-1.779-.745h-4.405c-.417 0-.836.017-1.25-.037-.251-.031-.56-.101-.744-.307a.621.621 0 0 1-.057-.074c-.166-.25-.139-.598-.075-.896.096-.452.27-.872.628-1.117.477-.326 1.211-.293 1.739-.283l8.302-.003-1.617 7.611c-.111.518-.145 1.127.151 1.554l.001.002c.372.562 1.089.596 1.657.596h5.52c1.34 0 2.489-.52 3.076-2.058l.002-.003h.002ZM82.183 5.137l-1.84 8.714c-.361 1.708-1.855 2.101-3.136 2.101h-3.683c-.342 0-.715-.09-.945-.396l-.082-.108-.097.096c-.326.318-.755.408-1.158.409l-3.782.006c-.734 0-1.63-.125-2.106-.833-.245-.366-.273-.808-.178-1.261l1.84-8.832v-.002c.052-.274.158-.542.33-.744.143-.165.332-.281.53-.281h1.044a.46.46 0 0 1 .384.187c.185.25.128.643.072.949v.003l-1.535 7.431c-.067.297-.042.627.12.865.1.149.249.207.408.207h2.507c.21 0 .419-.156.568-.324.207-.242.35-.532.413-.843l1.553-7.46v-.003c.051-.273.157-.54.329-.74.142-.167.331-.285.531-.285h1.034a.464.464 0 0 1 .393.196c.179.252.12.636.065.94v.004l-1.537 7.411c-.066.3-.041.635.122.874.094.14.23.223.386.219h2.573a.4.4 0 0 0 .055-.004c.431-.06.804-.724.9-1.181l1.553-7.44c.057-.27.163-.537.335-.737.144-.168.333-.285.534-.285h1.043a.457.457 0 0 1 .381.188c.186.25.132.643.075.95v.004l.001.005ZM.502 13.954v.014c.031 1.428.906 1.967 2.02 2.031h5.024c1.298 0 2.497-.604 2.838-2.22l2.66-12.625c.063-.304.136-.702-.046-.958a.448.448 0 0 0-.382-.19h-1.034c-.201 0-.392.113-.537.279-.178.201-.285.472-.34.75L8.473 11.538c-.342 1.611-1.407 2.092-2.692 2.1l-2.151.015h-.004c-.23-.015-.636-.044-.778-.272-.143-.227-.053-.655 0-.915v-.007c.033-.18.033-.396-.077-.535a.346.346 0 0 0-.27-.128l-1.036-.022h-.006c-.337 0-.613.269-.703.65a12.83 12.83 0 0 0-.193.958 5.244 5.244 0 0 0-.063.56v.013l.002-.002Zm24.968-2.84.006-.03c.33-1.61 1.516-2.137 2.79-2.137h5.843c.039 0 .077.007.114.02.352.128.38.733.305 1.093a2.217 2.217 0 0 1-.324.8c-.15.214-.36.385-.597.378h-3.423c-.283 0-.566-.014-.849-.01-.4.005-.961.04-1.294.348-.159.147-.251.34-.3.566-.076.35-.058.683.127.971.375.554 1.23.614 1.802.614h2.281c1.285 0 2.414-.502 2.755-2.12l.717-3.4c.1-.455.124-.97-.131-1.349-.381-.568-1.18-.593-1.76-.593h-6.388a.337.337 0 0 1-.094-.014c-.37-.109-.422-.73-.342-1.102.06-.281.166-.57.325-.8.148-.213.355-.385.594-.38h8.665c.597 0 1.386.034 1.774.626.27.413.305.955.198 1.462l-1.666 7.864c-.163.77-.542 1.362-1.161 1.71-.527.297-1.13.366-1.697.366H13.925c-.594 0-1.39-.063-1.775-.647-.269-.41-.295-.935-.188-1.436l1.666-7.866c.345-1.636 1.593-2.079 2.86-2.079h7.016c.563 0 1.295.05 1.66.605.283.427.26.999.15 1.512l-.628 2.966c-.331 1.624-1.452 2.186-2.756 2.186h-5.966a.33.33 0 0 1-.115-.02c-.352-.129-.38-.73-.305-1.091a2.2 2.2 0 0 1 .324-.802c.15-.214.359-.383.597-.377h5.015c.642-.01.933-.447 1.082-1.138.073-.34.07-.694-.117-.973-.364-.547-1.337-.625-1.901-.625H18.26c-1.276 0-2.409.517-2.744 2.124v.004l-.723 3.4c-.098.459-.126.987.136 1.366v.002l.001.002c.375.572 1.174.598 1.75.598h8.24l.025-.12a1296.966 1296.966 0 0 1 .43-2.028c.032-.143.064-.286.092-.43l.003-.014v-.001Z" clip-rule="evenodd"></path></svg>